<svg width="36" height="35" viewBox="0 0 36 35" fill="none" xmlns="http://www.w3.org/2000/svg">
<path d="M18.1015 1.46274e-06C8.42629 -0.00390479 0.589844 7.81641 0.589844 17.4688C0.589844 25.1016 5.49202 31.5899 12.3191 33.9727C13.2385 34.2032 13.0976 33.5508 13.0976 33.1055V30.0782C7.78858 30.6992 7.5734 27.1914 7.21737 26.6055C6.4975 25.3789 4.79562 25.0664 5.30423 24.4805C6.51315 23.8594 7.74554 24.6367 9.17355 26.7422C10.2064 28.2696 12.2213 28.0117 13.2424 27.7578C13.4654 26.8399 13.9427 26.0196 14.6 25.3828C9.09921 24.3985 6.80657 21.0469 6.80657 17.0625C6.80657 15.1289 7.44429 13.3516 8.69624 11.918C7.89812 9.5547 8.77058 7.53126 8.88795 7.23048C11.161 7.02735 13.5241 8.85548 13.708 9.00001C14.999 8.65235 16.474 8.46876 18.125 8.46876C19.7839 8.46876 21.2627 8.66016 22.5655 9.01173C23.0076 8.67579 25.1985 7.10548 27.3112 7.29688C27.4247 7.59766 28.2776 9.57423 27.5264 11.9063C28.794 13.3438 29.4395 15.1367 29.4395 17.0742C29.4395 21.0664 27.1313 24.4219 21.6148 25.3906C22.0873 25.8546 22.4625 26.4079 22.7184 27.0182C22.9744 27.6285 23.1059 28.2837 23.1054 28.9453V33.3399C23.1367 33.6914 23.1054 34.0391 23.6923 34.0391C30.6211 31.7071 35.6093 25.1719 35.6093 17.4727C35.6093 7.81641 27.769 1.46274e-06 18.1015 1.46274e-06Z" fill="black"/>
</svg>
